<svg id="bfc59778-adb9-4ded-81d5-12977ec092f3" xmlns="http://www.w3.org/2000/svg" xmlns:xlink="http://www.w3.org/1999/xlink" viewBox="0 0 996.46 828.2"><defs><style>.cls-1{fill:#6c63ff;}.cls-1,.cls-13,.cls-5,.cls-6{opacity:0.1;}.cls-1,.cls-13,.cls-4,.cls-5{isolation:isolate;}.cls-2{fill:#d48a9b;}.cls-3{fill:#2d2d2d;}.cls-4{fill:#5a5a60;opacity:0.2;}.cls-7{fill:#4c4c4c;}.cls-8{fill:#232323;}.cls-9{fill:#e1dee5;}.cls-10{fill:#a36468;}.cls-11{fill:#d9d6df;}.cls-12{fill:#b8797d;}.cls-13,.cls-24{fill:#fff;}.cls-14{fill:url(#linear-gradient);}.cls-15{fill:#ff0013;}.cls-16{fill:#b77100;}.cls-17{fill:#171719;}.cls-18{fill:#edd6d8;}.cls-19{fill:#ed4545;}.cls-20{fill:#67647e;}.cls-21{fill:#444053;}.cls-22{fill:#d1d9ec;}.cls-23{fill:#dfe6f5;}.cls-25{fill:#edd1d3;}.cls-26{fill:none;}.cls-27{fill:#f2d3d5;}.cls-28{fill:#c68d55;}.cls-29{fill:#746d83;}.cls-30{fill:#4c4c56;}</style><linearGradient id="linear-gradient" x1="-1847.59" y1="146.29" x2="-1847.59" y2="685.53" gradientTransform="translate(-1597.59 794.09) rotate(180)" gradientUnits="userSpaceOnUse"><stop offset="0" stop-color="gray" stop-opacity="0.25"/><stop offset="0.54" stop-color="gray" stop-opacity="0.12"/><stop offset="1" stop-color="gray" stop-opacity="0.1"/></linearGradient></defs><path class="cls-1" d="M994.59,272.45H902.65V383.9h85.22c.22,1.15.43,2.3.68,3.44h-85.9V477.2l.43-.14q3.64-1.28,7.23-2.72l1.54-.63c2.45-1,4.86-2.08,7.23-3.23.85-.39,1.69-.8,2.52-1.22a149.73,149.73,0,0,0,36.17-25c.31-.27.6-.55.88-.82,1.47-1.42,2.91-2.85,4.31-4.32l1.54-1.64c1.65-1.79,3.24-3.64,4.79-5.51l.68-.82a116.29,116.29,0,0,0,15.58-25c.13-.27.24-.55.36-.82,1.25-2.82,2.38-5.68,3.36-8.59.42-1.23.82-2.46,1.17-3.69.12-.37.23-.73.33-1.09,5.1-17.85,5.69-36.4,5.69-54.85v-6.45c0-7.45-.11-15-.25-22.45,0-1.94-.09-3.87-.14-5.82q-.18-7.42-.54-14.84c-.06-1.38-.12-2.75-.21-4.11,0-.79-.08-1.58-.13-2.37C995,278.14,994.81,275.3,994.59,272.45Z" transform="translate(0 0.02)"/><path class="cls-1" d="M902.65,148.38h50.43a344.76,344.76,0,0,0-26.85-32.84c-7.5-8.18-15.37-16.16-23.61-23.84Z" transform="translate(0 0.02)"/><path class="cls-1" d="M902.65,151.82V269H994.3c0-.34-.06-.69-.09-1-.08-.92-.16-1.84-.25-2.77s-.21-2.16-.33-3.25-.24-2.35-.38-3.51-.26-2.35-.41-3.52-.29-2.34-.45-3.5-.31-2.34-.49-3.5c-.14-1-.27-1.92-.42-2.89-.21-1.36-.43-2.73-.66-4.08,0-.2-.06-.4-.11-.6A251.24,251.24,0,0,0,984,211a202.9,202.9,0,0,0-11.37-29.87,216.52,216.52,0,0,0-17.11-29.3Z" transform="translate(0 0.02)"/><path class="cls-1" d="M684.31,272.45V383.9H880.69V272.45Zm0,114.89v75.47c22.86-7.31,49-4.36,72.7,1.64,18.35,4.66,36.23,11,54.55,15.56a200,200,0,0,0,24.87,4.7l2.06.22c1,.1,2,.2,3,.28l3,.21h2.11l1.62.06h0c.77,0,1.55,0,2.33.06H857a17,17,0,0,0,1.75-.06c.94,0,1.88-.08,2.83-.15h0l1.75-.11,2.16-.17c1.53-.12,3-.28,4.55-.46.6-.07,1.21-.14,1.81-.23l.89-.11c1.51-.2,3-.44,4.51-.69,1.11-.17,2.22-.38,3.34-.58V387.34Zm146.06-239v3.44H684.31V269H880.69V151.82h-9.85v-3.44h9.85V72.64c-38.2-30.77-82.85-54.87-132.58-66A281.59,281.59,0,0,0,684.31,0V148.38Zm-449-.66.69.66H662.34V1c-49.9,4.15-98.56,20.91-137.79,48.68C505.7,63,488.77,78.83,467.62,89.06a89.1,89.1,0,0,1-35.6,9.2Zm-1.93-60.44v33.35l27.08-26.43c-10.07-3.48-18-5.86-27.12-6.88Zm-.9,419.56h.9v73.1q15.33-1.14,30.54-3.14A546.27,546.27,0,0,0,542.23,542.5h0q6.84-2.75,13.58-5.66,4.49-2,8.93-4,6.66-3.06,13.22-6.29a465.55,465.55,0,0,0,55.87-32.46c1.11-.75,2.23-1.51,3.33-2.28q3.32-2.3,6.59-4.64c1.09-.79,2.18-1.58,3.26-2.38l2.22-1.7c2.24-1.67,4.47-3.35,6.73-5h0c2.09-1.5,4.2-3,6.34-4.4v-86.4H437.15l.48-1.54c-.18.52-.34,1-.49,1.54H379.4V506.78Zm.9-355V269h282.9V151.82Zm0,120.63V383.9h282.9V272.45ZM322.88,90.67l34.56,33.73V87.09Q340.07,88.17,322.88,90.67ZM82.23,272.45V383.9H357.44V272.45ZM148.75,547.7a511.05,511.05,0,0,0,129.73,30.78h.19q12.58,1.34,25.25,2.06h.31c17.69,1,35.45,1.23,53.18.57V387.34H82.23l1,128.32M6,383.9H60.28V272.45H38.81c-2.23,3.92-4.39,7.86-6.44,11.86q-1.65,3.19-3.21,6.45C15,320.09,6.05,352.33,6,383.9Zm0,3.44c.44,22.64,5.54,44.86,16.73,65.39,9.3,17,22.22,32,37.51,45V387.34ZM40.78,269H60.24V240a309.76,309.76,0,0,0-19.42,29ZM162.71,148.38H351l.68-.66-1-1h0L297.7,95.09a431.31,431.31,0,0,0-46.47,12.45c-1.44.47-2.88,1-4.31,1.45A420.82,420.82,0,0,0,162.71,148.38ZM82.23,213.75V269H357.47V155l-3.86-3.14H157.17A377.5,377.5,0,0,0,82.23,213.75Z" transform="translate(0 0.02)"/><path class="cls-1" d="M902.65,210.93V269H994.3c0-.34-.06-.69-.09-1-.08-.92-.16-1.84-.25-2.77s-.21-2.16-.33-3.25-.24-2.35-.38-3.51-.26-2.35-.41-3.52-.29-2.34-.45-3.5-.31-2.34-.49-3.5c-.14-1-.27-1.92-.42-2.89-.21-1.36-.43-2.73-.66-4.08,0-.2-.06-.4-.11-.6A251.24,251.24,0,0,0,984,211Z" transform="translate(0 0.02)"/><path class="cls-1" d="M994.59,272.45H902.65V383.9h85.22c.22,1.15.43,2.3.68,3.44h-85.9V477.2l.43-.14q3.64-1.28,7.23-2.72l1.54-.63c2.45-1,4.86-2.08,7.23-3.23.85-.39,1.69-.8,2.52-1.22a149.73,149.73,0,0,0,36.17-25c.31-.27.6-.55.88-.82,1.47-1.42,2.91-2.85,4.31-4.32l1.54-1.64c1.65-1.79,3.24-3.64,4.79-5.51l.68-.82a116.29,116.29,0,0,0,15.58-25c.13-.27.24-.55.36-.82,1.25-2.82,2.38-5.68,3.36-8.59.42-1.23.82-2.46,1.17-3.69.12-.37.23-.73.33-1.09,5.1-17.85,5.69-36.4,5.69-54.85v-6.45c0-7.45-.11-15-.25-22.45,0-1.94-.09-3.87-.14-5.82q-.18-7.42-.54-14.84c-.06-1.38-.12-2.75-.21-4.11,0-.79-.08-1.58-.13-2.37C995,278.14,994.81,275.3,994.59,272.45Z" transform="translate(0 0.02)"/><polygon class="cls-1" points="811.56 168.62 811.56 269.03 880.69 269.03 880.69 168.62 870.84 168.62 870.84 134.62 830.37 134.62 830.37 168.62 811.56 168.62"/><rect class="cls-1" x="811.56" y="272.47" width="69.13" height="111.44"/><path class="cls-1" d="M880.69,387.34H811.57V480a199.82,199.82,0,0,0,24.86,4.7l2.06.22c1,.11,2,.2,3,.28l3,.21h.31a10.09,10.09,0,0,1,1.34.06h.46a14.89,14.89,0,0,1,1.63.06h0c.77,0,1.55,0,2.33.06H857l1.76-.06c.93,0,1.88-.08,2.82-.15h0l1.74-.11,2.17-.17c1.52-.13,3-.28,4.54-.46l1.81-.23.89-.11c1.51-.21,3-.43,4.51-.69,1.12-.17,2.22-.38,3.34-.58Z" transform="translate(0 0.02)"/><rect class="cls-1" x="379.4" y="156.76" width="57.01" height="112.26"/><polygon class="cls-1" points="379.4 272.47 379.4 383.92 662.34 383.92 662.34 335.85 511.63 335.85 511.63 364.21 436.4 364.21 436.4 272.47 379.4 272.47"/><path class="cls-1" d="M378.5,506.84h.9V580q15.33-1.16,30.54-3.14A547.48,547.48,0,0,0,542.23,542.5q18.24-7.32,35.73-15.94a465.62,465.62,0,0,0,55.87-32.47q6.69-4.54,13.17-9.29c3-2.21,6-4.46,9-6.65,2.09-1.5,4.2-3,6.34-4.41v-86.4H437.16c.16-.51.31-1,.47-1.53-.17.51-.34,1-.49,1.53H379.4V506.79Z" transform="translate(0 0.02)"/><path class="cls-1" d="M230.73,148.38h37.14V138.09H251.23V107.54c-1.44.47-2.88,1-4.31,1.45v29.1H230.73Z" transform="translate(0 0.02)"/><path class="cls-1" d="M141.23,269H357.44V156.74h-9.58v83h-43.8V190.62H267.87v-38.8H230.73v38.8H194.55v49.11H141.23Z" transform="translate(0 0.02)"/><path class="cls-1" d="M141.23,272.45V383.9H357.44V272.45Zm7.55,275.25a511.05,511.05,0,0,0,129.73,30.78h.19q12.58,1.34,25.25,2.06h.31c17.69,1,35.45,1.23,53.18.57V387.34H141.23v39.51h-59l.31,88.21" transform="translate(0 0.02)"/><path class="cls-1" d="M56.47,387.34H6c.44,22.64,5.55,44.86,16.73,65.39,9.3,17.06,22.23,32,37.51,45V426.85H56.47Z" transform="translate(0 0.02)"/><path class="cls-1" d="M6,383.9H56.47V290.76H29.16C15,320.09,6.05,352.33,6,383.9Z" transform="translate(0 0.02)"/><rect class="cls-1" x="379.4" y="187.97" width="30.54" height="35.2"/><rect class="cls-1" x="379.4" y="260.93" width="30.54" height="8.1"/><rect class="cls-1" x="379.4" y="272.47" width="30.54" height="23.65"/><rect class="cls-1" x="379.4" y="333.88" width="30.54" height="35.2"/><rect class="cls-1" x="379.4" y="406.84" width="30.54" height="35.2"/><path class="cls-1" d="M379.4,506.79h0V515h30.54v-35.2H379.4Z" transform="translate(0 0.02)"/><path class="cls-1" d="M379.4,552.72v27.19q15.33-1.15,30.54-3.14v-24Z" transform="translate(0 0.02)"/><rect class="cls-1" x="531.46" y="381.33" width="130.88" height="2.58"/><rect class="cls-1" x="531.46" y="387.36" width="130.88" height="9.91"/><rect class="cls-1" x="531.46" y="429.75" width="130.88" height="15.94"/><path class="cls-1" d="M531.46,478.15v15.94H633.84q6.67-4.53,13.17-9.3c3-2.2,6-4.45,9-6.63Z" transform="translate(0 0.02)"/><path class="cls-1" d="M531.46,526.56V542.5h10.77q18.22-7.31,35.72-15.94Z" transform="translate(0 0.02)"/><rect class="cls-1" x="278.5" y="283.28" width="25.76" height="22.91"/><rect class="cls-1" x="836.36" y="176.52" width="25.76" height="22.91"/><rect class="cls-1" x="836.36" y="229.74" width="25.76" height="22.91"/><rect class="cls-1" x="836.36" y="282.95" width="25.76" height="22.91"/><rect class="cls-1" x="836.36" y="336.17" width="25.76" height="22.91"/><rect class="cls-1" x="836.36" y="389.4" width="25.76" height="22.91"/><rect class="cls-1" x="836.36" y="442.61" width="25.76" height="22.91"/><rect class="cls-1" x="180.14" y="283.28" width="25.76" height="22.91"/><rect class="cls-1" x="278.5" y="339.78" width="25.76" height="22.91"/><rect class="cls-1" x="180.14" y="339.78" width="25.76" height="22.91"/><rect class="cls-1" x="278.5" y="396.29" width="25.76" height="22.91"/><rect class="cls-1" x="180.14" y="396.29" width="25.76" height="22.91"/><rect class="cls-1" x="278.5" y="452.8" width="25.76" height="22.91"/><rect class="cls-1" x="180.14" y="452.8" width="25.76" height="22.91"/><rect class="cls-1" x="278.5" y="509.32" width="25.76" height="22.91"/><rect class="cls-1" x="180.14" y="509.32" width="25.76" height="22.91"/><polygon class="cls-1" points="304.25 580.6 304.25 565.83 278.5 565.83 278.5 578.5 304.25 580.6"/><path class="cls-1" d="M902.65,240.35v13.11h88.17V240.35Zm79.39.83h7.19v11.46H982Zm-8.78,0h7.23v11.46h-7.26Zm-8.76,0h7.23v11.46H964.5Zm-8.78,0H963v11.46h-7.23Zm-8.77,0h7.28v11.46H947Zm-8.78,0h7.23v11.46h-7.23Zm-8.78,0h7.23v11.46h-7.23Zm-8.77,0h7.23v11.46h-7.23Zm-8.77,0h7.23v11.46h-7.23Zm-8.77,0h7.23v11.46h-7.23Z" transform="translate(0 0.02)"/><path class="cls-1" d="M902.65,278.51v13.11h88.17V278.51Zm79.39.83h7.19v11.45H982Zm-8.78,0h7.23v11.45h-7.26Zm-8.76,0h7.23v11.45H964.5Zm-8.78,0H963v11.45h-7.23Zm-8.77,0h7.28v11.45H947Zm-8.78,0h7.23v11.45h-7.23Zm-8.78,0h7.23v11.45h-7.23Zm-8.77,0h7.23v11.45h-7.23Zm-8.77,0h7.23v11.45h-7.23Zm-8.77,0h7.23v11.45h-7.23Z" transform="translate(0 0.02)"/><path class="cls-1" d="M902.65,316.66v13.1h88.17v-13.1Zm79.39.82h7.19v11.46H982Zm-8.78,0h7.23v11.46h-7.26Zm-8.76,0h7.23v11.46H964.5Zm-8.78,0H963v11.46h-7.23Zm-8.77,0h7.28v11.46H947Zm-8.78,0h7.23v11.46h-7.23Zm-8.78,0h7.23v11.46h-7.23Zm-8.77,0h7.23v11.46h-7.23Zm-8.77,0h7.23v11.46h-7.23Zm-8.77,0h7.23v11.46h-7.23Z" transform="translate(0 0.02)"/><path class="cls-1" d="M902.65,354.81v13.1h88.17v-13.1Zm79.39.82h7.19v11.46H982Zm-8.78,0h7.23v11.46h-7.26Zm-8.76,0h7.23v11.46H964.5Zm-8.78,0H963v11.46h-7.23Zm-8.77,0h7.28v11.46H947Zm-8.78,0h7.23v11.46h-7.23Zm-8.78,0h7.23v11.46h-7.23Zm-8.77,0h7.23v11.46h-7.23Zm-8.77,0h7.23v11.46h-7.23Zm-8.77,0h7.23v11.46h-7.23Z" transform="translate(0 0.02)"/><path class="cls-1" d="M902.65,393v13.13h82.9c.12-.27.24-.55.35-.82H982V393.79h7.19v2.85c.42-1.22.82-2.44,1.17-3.68Zm70.61.83h7.23v11.45h-7.26Zm-8.76,0h7.23v11.45H964.5Zm-8.78,0H963v11.45h-7.23Zm-8.77,0h7.28v11.45H947Zm-8.78,0h7.23v11.45h-7.23Zm-8.78,0h7.23v11.45h-7.23Zm-8.77,0h7.23v11.45h-7.23Zm-8.77,0h7.23v11.45h-7.23Zm-8.77,0h7.23v11.45h-7.23Z" transform="translate(0 0.02)"/><path class="cls-1" d="M902.65,431.09v13.1h55.11c.32-.27.6-.56.89-.82h-2.93V431.94H963v7.15l1.55-1.65v-5.5h4.79c.23-.28.45-.56.68-.82Zm44.3.82h7.28v11.46H947Zm-8.78,0h7.23v11.46h-7.23Zm-8.78,0h7.23v11.46h-7.23Zm-8.77,0h7.23v11.46h-7.23Zm-8.77,0h7.23v11.46h-7.23Zm-8.77,0h7.23v11.46h-7.23Z" transform="translate(0 0.02)"/><path class="cls-1" d="M902.65,469.27v7.93a3.12,3.12,0,0,0,.43-.15v-7h7.23v4.26l1.54-.63v-3.59h7.23v.4c.85-.39,1.69-.8,2.52-1.21Z" transform="translate(0 0.02)"/><path class="cls-1" d="M323.56,269h0ZM378.5,506.84h0Zm58.64-119.5h0l.48-1.54C437.45,386.32,437.29,386.83,437.14,387.34ZM323.56,269h0ZM830.37,148.38v3.44h40.47v-3.44ZM378.5,506.84h0Zm58.64-119.5h0l.48-1.54C437.45,386.32,437.29,386.83,437.14,387.34ZM323.56,269h0ZM378.5,506.84h0Zm58.64-119.5h0l.48-1.54C437.45,386.32,437.29,386.83,437.14,387.34Z" transform="translate(0 0.02)"/><polygon class="cls-2" points="668.32 535.27 651.04 534.32 649.87 484.69 649.6 472.87 667.83 469.51 667.95 484.75 668.32 535.27"/><polygon class="cls-2" points="654.87 526.63 566.07 581.84 564.15 598.64 573.75 599.12 573.75 587.12 631.83 554.48 561.75 641.36 561.75 654.8 573.27 654.8 572.31 639.92 653.43 547.76 663.51 548.72 748.96 645.68 750.88 662.01 762.4 662.49 760.48 645.68 692.8 561.2 737.92 592.4 738.88 605.84 748 606.32 747.04 590 661.11 523.75 654.87 526.63"/><path class="cls-3" d="M543.31,432.18a158.38,158.38,0,0,0,20.92-34.09c6.11-13.52,12.81-29.13,13.32-33.75,1-8.64,25.44-25.92,52.32-26.88,17.53-.63,44.84-14.31,61.74-23.76a125.63,125.63,0,0,1,51.8-16c19.77-1.49,38.36,2.39,29,25.33L646.71,475.25s-107.2,18.89-113.81-11.48a25.26,25.26,0,0,0-1.53-4.46C530.12,456.44,529.79,449,543.31,432.18Z" transform="translate(0 0.02)"/><path class="cls-4" d="M552.75,435.2a163.07,163.07,0,0,0,21.13-34.4c5.7-12.64,11.75-26.81,12.23-31.1.92-8.25,24.34-24.76,50.06-25.68,16.77-.6,42.9-13.66,59.06-22.69a120.44,120.44,0,0,1,49.58-15.24c18.91-1.42,36.7,2.29,27.78,24.2l-99.71,146s-123,17.45-129.51-11.42a29.58,29.58,0,0,0-1.53-4.48C540.7,457.53,540.54,450.52,552.75,435.2Z" transform="translate(0 0.02)"/><path class="cls-5" d="M668,484.73c-5.78,0-11.87,0-18.08-.06l-.27-11.82,18.23-3.35Z" transform="translate(0 0.02)"/><g class="cls-6"><polygon points="737.92 589.52 692.8 558.32 697.97 564.77 737.92 592.4 738.88 605.84 748 606.32 747.83 603.43 738.88 602.96 737.92 589.52"/><polygon points="573.75 584.24 573.75 587.12 627.58 556.87 631.83 551.6 573.75 584.24"/><polygon points="561.75 651.92 561.75 654.8 573.27 654.8 573.08 651.92 561.75 651.92"/><polygon points="573.75 596.24 564.47 595.78 564.15 598.64 573.75 599.12 573.75 596.24"/><polygon points="750.88 659.13 748.96 642.8 663.51 545.84 653.43 544.88 572.31 637.04 572.48 639.73 653.43 547.76 663.51 548.72 748.96 645.68 750.88 662.01 762.4 662.49 762.07 659.59 750.88 659.13"/></g><path class="cls-5" d="M657.75,390.15s22.48,16.44,12.64,16.63S657.75,390.15,657.75,390.15Z" transform="translate(0 0.02)"/><path class="cls-7" d="M560.35,480.72s37.2-2.88,51.12-29.76c0,0,28.32-56.17,51.37-62.41s65.76-20.16,83.52-41.76,25.21-38.16,25.21-38.16,4.58,17.48-9.85,38.09S742,399.07,732,432.72s-13.92,47-32.16,49c-13.75,1.45-86.45.72-121.21,0C567.22,481.41,560.35,480.72,560.35,480.72Z" transform="translate(0 0.02)"/><path class="cls-8" d="M572.79,480.09s35.56-2.79,48.86-28.82c0,0,27.08-54.38,49.1-60.42s62.86-19.53,79.84-40.44,24.09-37,24.09-37,4.35,17-9.41,37-18.81,50.66-28.45,83.2-13.3,45.55-30.74,47.41c-13.14,1.4-82.63.69-115.86,0C579.36,480.81,572.79,480.09,572.79,480.09Z" transform="translate(0 0.02)"/><path class="cls-5" d="M544,466.09s19.44,7.44,30.48,3.36,38.4-16.08,38.4-16.08S566.79,456.29,544,466.09Z" transform="translate(0 0.02)"/><path class="cls-9" d="M674,815.44s-55.88-3-69.5-11-32.9-8-33-8L349,747.94l-92.5-22L240,723.77l54.5-62.36,1.66-.72,80.34-34.75s36,2,43.11,25.46a28.14,28.14,0,0,1,1,5.06A29.33,29.33,0,0,1,414.9,677c-2.84,3.88-6.33,9.39-7.43,14.24-.62,2.74-.48,5.27,1,7.2a58.7,58.7,0,0,0,9.88,7.89c19.59,13,69.11,34.42,155.62,1.61,0,0,37-36.5,65-21S674,815.44,674,815.44Z" transform="translate(0 0.02)"/><path class="cls-5" d="M407.51,691.24c-.62,2.74-.48,5.27,1,7.2a58.7,58.7,0,0,0,9.88,7.89L250,718.94l46.16-58.25,80.34-34.75s36,2,43.11,25.46a28.14,28.14,0,0,1,1,5.06A29.33,29.33,0,0,1,414.9,677C412.1,680.88,408.61,686.39,407.51,691.24Z" transform="translate(0 0.02)"/><polygon class="cls-10" points="242.97 461.96 380.97 464.96 380.97 630.15 249.97 718.96 218.47 689.96 224.97 593.96 218.47 504.46 242.97 461.96"/><path class="cls-11" d="M164.47,434.94l161.12-49.65a24.42,24.42,0,0,1,9-1l384.9,28.09a181.86,181.86,0,0,1,91.66,32.33c24.91,17.57,49.58,44.54,61,85.38a163,163,0,0,1-1.65,91.83l-34,110s25.5-239-229-251Z" transform="translate(0 0.02)"/><path class="cls-12" d="M250,458.44V723.77s-44.15-6.21-52-14.83c-6.44-7.07-43.75-27-59.94-47.53-3.55-4.5-6.09-9-7.06-13.47-5.42-24.68-27.5-83-27.5-83l6-57,25-37,48.5-22h37.5Z" transform="translate(0 0.02)"/><path class="cls-11" d="M180,461.94s-71.76,45-56.06,117.41c1.28,5.9,2.39,11.83,3.12,17.83C129.9,620.6,147.12,687.9,250,718.94v7l-43.63-12.17-29.62-16.33-22.61-20.28-27.64-33.72-12.83-27.5-4.7-36.22-2.71-41.35,6.61-35.47,15.59-23.08,19-14.77Z" transform="translate(0 0.02)"/><path class="cls-5" d="M250,458.44v42.21c-31.3,3.4-128.21,23-111,135L138,661.37c-3.55-4.5-6.09-9-7.06-13.47-5.42-24.68-27.5-83-27.5-83l6-57,25-37,48.5-22h37.5Z" transform="translate(0 0.02)"/><path class="cls-13" d="M414.94,677c-2.84,3.88-6.33,9.39-7.43,14.24-4.36-5-5.3-10.75,1-15.3,7.89-5.74,10.52-15.7,11.11-24.54a28.14,28.14,0,0,1,1,5.06A29.33,29.33,0,0,1,414.94,677Z" transform="translate(0 0.02)"/><path class="cls-12" d="M819,703.94l-19,64.5-43,42-54,11-84-15V507.94s14.5-9.5,16-9.5,42,6.5,42,6.5l91.7,65.77,3.8,2.73,41,61Z" transform="translate(0 0.02)"/><polygon class="cls-10" points="618.97 495.46 618.97 806.46 627.07 807.91 627.07 495.46 618.97 495.46"/><path class="cls-5" d="M770.47,591.44c-60-49.3-126.7-56.55-151.5-57.45V508s14.5-9.5,16-9.5,42,6.5,42,6.5l91.7,65.77Z" transform="translate(0 0.02)"/><path class="cls-9" d="M606.3,475.44l-375.83-41-42.24-2.24A86.81,86.81,0,0,0,118,461.55c-22,25.3-38.63,69.93-14.34,146.56,0,0,25.33,99.33,148,120.67l356.44,80.77c7.9,1.79,15.7,4,23.4,6.51,32.36,10.63,142,38.17,193.65-55.45,17.7-32.1,23-69.53,16.18-105.56C828.92,589.15,782,477.32,606.3,475.44ZM790.43,756.33c-48.2,78.52-147.52,55.15-177.38,45.93-7.31-2.26-14.71-4.23-22.2-5.83L261.59,726C148.15,707.36,124.72,620.63,124.72,620.63c-19.15-57-10.78-93.78,4.7-117.06,16.21-24.37,44.43-38,73.67-36.52l38.92,2L578.17,514c6.8.91,13.65,1.51,20.51,1.74,149.49,5.07,196,87.27,207.82,143.92C813.44,692.73,808.16,727.47,790.43,756.33Z" transform="translate(0 0.02)"/><path class="cls-14" d="M4.23,642.55c12.31,8.24,31,4.32,31,4.32s28.19-13.35,36.52-13.35,28.59-8.25,28.59-8.25l-.69-5.56L97.59,603c12.83,10,27.09,6.55,34.11,5.82,7.54-.78,47.83-24.73,51.71-26.31,1.05-.42,2.28-1.79,3.53-3.56h0a89.6,89.6,0,0,0,6.82-12.46h0c2.52-2.22,4.36-4,4.23-4.39s1-3.31,2.47-6.6c5.72-1,10.65-3.12,12.22-4.4a10.64,10.64,0,0,0,4-8.64s39.31-39.65,34.14-56.14,12.71-16.89,12.71-16.89,27.39-11.78,31.2-18.84c2.35-4.35,22.9-13.9,38.36-20.6l1.9-.82c6,13.15,36.48,3,42.48-2.53,6.35-5.89,25-8.64,25-8.64s.8-77,6.75-86.78c2.83-4.65,3.51-19.85,3.44-34.53v-1.56c8.34-1.63,28.18-5.4,37.39-6.31,5.84-.58,11.93-4.22,16.6-7.76l.55.69a11.41,11.41,0,0,0,5.07.83,7.8,7.8,0,0,0,4.45-.83c3.58-2,16.68-5.89,21.44-7.85s-.79-16.1-4.36-18.85-6-6.28-4-7.85-4.76-5.5-8.73-6.29-15.88-6.28-15.88-6.28-4.37-9-11.51-9S437,218.52,437,218.52c-.39-3.14-7.94-3.53-7.94-3.53s-28.58-22-33.35-19.24-17.86-4.32-17.86-4.32-16.07,1.8-19.85-1.16h0a4.46,4.46,0,0,0-1-2.66c-.85-2.66-5-6.3-9-9.33a34.91,34.91,0,0,0,.46-5.68,22.2,22.2,0,0,0-.09-2.45v-.41l.57-5.53a11.4,11.4,0,0,1,1.38-5.2c.67-1,1.66-1.85,2.41-2.84a7.06,7.06,0,0,0,.48-.73l.12-.21a6.54,6.54,0,0,0,.3-.59l.09-.2a9.86,9.86,0,0,0,.51-1.68v-.13c0-.26.09-.52.12-.79v-.11a16.79,16.79,0,0,0-.9-6.74c-1.19-3.71-3.05-7.29-3.25-11.16-.1-1.92.22-3.88-.2-5.76-1-4.29-5.37-7-9.62-8.8-5.87-2.46-8.83-5.15-13.54-8.81-4-3.1-10.62-1.54-15.66-1.22-11.52.74-22.89,4.21-33.73,7.79-4.21,1.4-8.5,3-11.78,5.85a13,13,0,0,0-4.31,7.28h0a9.57,9.57,0,0,0-.13,2v.17a2.17,2.17,0,0,0,.09.76,1,1,0,0,0,0,.25,5.38,5.38,0,0,0,.22.9h0c.46,1.45,1.31,2.76,1.8,4.2a8.68,8.68,0,0,1,.27,1v.1a9.11,9.11,0,0,1,.16,1h0c.44,3.57-.88,7.3-1.46,10.94-.08.51-.14,1-.18,1.56h0a18.64,18.64,0,0,0,.55,6.27v.07c.06.25.15.5.23.74a3,3,0,0,0,.1.32c.07.21.16.42.24.62l.17.42c.08.18.17.36.26.54s.15.3.23.44.17.32.27.48.19.31.29.46.19.29.3.43l.35.46.31.38.42.44.33.33.49.42c.12.09.22.19.34.27s.41.29.62.42l.29.2c.32.19.66.36,1,.52,2.28,1,5.16,1.41,6.53,3.42a4.25,4.25,0,0,1,.67,1.56V173a32.59,32.59,0,0,0,.2,3.44,12.9,12.9,0,0,0,.11,1.86,5.33,5.33,0,0,0,.38,1.35,35.68,35.68,0,0,0,12,20.22c.12.61.26,1.32.41,2.12a39.72,39.72,0,0,1-11.55,6c-9.53,2.79-23,15.66-23,15.66s-6.7,48.29-8.31,54.18-2.8,28.67-2.8,28.67-1.59,9.42-4,14.13c-1.69,3.32-1.38,17.59,3.32,26.26a22.37,22.37,0,0,1-2.92,4.76c-9.53,11-38.12,10.6-47.65,10.6-8.77,0-11.48,5.32-11.85,6.16-17.45,5-73.95,21.08-80.65,24-7.94,3.47-12.31,37.76-12.31,37.76s-16.59,56.92-15.8,64.38-5.56,28.24-5.56,28.24,0,23.49-2.69,25.08l-.08,0C60.59,549.1,61,560.49,61,560.49s2.05.59,5.24,1.4c-.85,5.75-4,13.8-6.43,19.52-1.24-1.57-2.45-2.22-3.17-.4-2,5-31.76,40.34-39.31,40.34-3.59,0-9.53,2.94-13.44,6.91C-.41,632.63-2.23,638.24,4.23,642.55ZM140.78,438c33.75,3.14,69.88-2.39,69.88-2.39s-2.78,9.85-5.16,13.78-9.14,26.31-9.14,31-10.72,45.15-13.89,47.11c-1.33.83-2.52,2.89-3.46,5a46.84,46.84,0,0,0-2.1,6q.08,1.53.27,2.91c-2.37,2.17-4.88,4.45-7.11,6.47h0s-14.2,7.9-19,12.22-27,9.62-27,9.62a139.06,139.06,0,0,0-16,8.15c-6.89,4.15-13.78,9.43-15.58,14.64.78-8.78,2.05-19.35,2.9-26.07l1.26,0c11.13-.69,9.47-11.31,8.88-13.94-.08-.38-.14-.59-.14-.59,7.94-8.64,25.8-73,23.42-80.1s2-13.35,2.93-13.35,2.23-7.85.25-12.17S140.78,438,140.78,438Zm272.9-173.22-2.11.52v-.45S412.34,264.83,413.68,264.76ZM298.32,205.51c-.32.4-.64.78-1,1.15l-.41.42V204.9C297.39,205.09,297.85,205.32,298.32,205.51Zm-39.77,76.18.14,2.21s-.21,1.35-.61,3.66ZM441,259.75l-6.93,1.19c1-.37,1.95-.77,2.89-1.22a6.54,6.54,0,0,1,2.21-.6,12.62,12.62,0,0,1,2.58.55A4.78,4.78,0,0,0,441,259.75Z" transform="translate(0 0.02)"/><path class="cls-15" d="M206.71,543.23s-8,16.51-7.59,17.68S182,576.09,182,576.09l-19.09-13.63,2-9.36s21.43-19.31,23-21.54S206.71,543.23,206.71,543.23Z" transform="translate(0 0.02)"/><path class="cls-16" d="M97.81,599.09c13.25,12.86,28.83,9,36.24,8.19s46.94-24.55,50.74-26.11a10.35,10.35,0,0,0,3.47-3.54h0A89.44,89.44,0,0,0,195,565.26c-.26.07-13.22,3.78-16.49,0,0,0-5.46-6.69-6.63-6.69s-.09-11.74-.09-11.74S157.8,554.67,153.13,559s-26.5,9.54-26.5,9.54A133.48,133.48,0,0,0,111,576.59C100.63,582.89,90.23,591.78,97.81,599.09Z" transform="translate(0 0.02)"/><path class="cls-5" d="M97.81,599.09c13.25,12.86,28.83,9,36.24,8.19s46.94-24.55,50.74-26.11a10.35,10.35,0,0,0,3.47-3.54c-4.61-2.75-34.73,16.4-43.16,19.91s-29.76,1.55-41.87-3.51c-6-2.53.08-10.3,7.7-17.44C100.63,582.89,90.23,591.78,97.81,599.09Z" transform="translate(0 0.02)"/><path class="cls-15" d="M99.37,558.57s-5.55,41.69-4.14,47.15S60.4,587,60.4,587s12.68-26.13,9-32.13S99.37,558.57,99.37,558.57Z" transform="translate(0 0.02)"/><path class="cls-17" d="M64.69,559.35s22.6,6.62,35.06,5.84c10.92-.68,9.29-11.22,8.72-13.83-.08-.37-.14-.58-.14-.58,7.79-8.58,25.33-72.48,23-79.49s1.9-13.2,2.9-13.2,2.19-7.8.24-12.08,8.58-8.18,8.58-8.18c33.12,3.11,68.58-2.38,68.58-2.38s-2.73,9.78-5.07,13.68-9,26.1-9,30.78S187,524.72,183.92,526.67c-1.3.82-2.47,2.86-3.39,5a47.19,47.19,0,0,0-2.06,6c1.17,26.11,30.78,16,35.07,12.47a11.6,11.6,0,0,0,1.66-1.7,10.93,10.93,0,0,0,2.23-6.88s38.58-39.35,33.51-55.72,12.47-16.75,12.47-16.75S290.3,457.4,294,450.38c2.31-4.31,22.47-13.78,37.65-20.44,9.51-4.17,17.06-7.22,17.06-7.22l-6.32-22.66-5-17.87-9.38-3.52-30-11.28-53.82-7.55-4.93.64L187,367.25s-76.34,21.84-84.14,25.26S90.79,430,90.79,430s-16.36,56.5-15.56,63.94-5.46,28-5.46,28,0,23.31-2.65,24.89a.11.11,0,0,1-.08,0C64.3,548.09,64.69,559.35,64.69,559.35Z" transform="translate(0 0.02)"/><path class="cls-5" d="M143,437.78c33.12,3.11,68.58-2.38,68.58-2.38,2.34-7.37,35.09-27.63,35.09-27.63C219.81,401.15,143,437.78,143,437.78Z" transform="translate(0 0.02)"/><path class="cls-16" d="M9,640.79c12.08,8.18,30.4,4.28,30.4,4.28S67,631.83,75.21,631.83s28-8.19,28-8.19l-.67-5.51-3.22-26.44s-30.35-.78-31.57-3.51c0,0-5.45-13.42-7.4-8.46s-31.17,40-38.58,40c-3.53,0-9.36,2.92-13.19,6.86C4.43,631,2.64,636.51,9,640.79Z" transform="translate(0 0.02)"/><path class="cls-5" d="M113.78,410.5s25.33,16,18.32,19.48S113.78,410.5,113.78,410.5Z" transform="translate(0 0.02)"/><path class="cls-5" d="M103.23,441.28s21.82,20.72,13.64,21.27S103.23,441.28,103.23,441.28Z" transform="translate(0 0.02)"/><path class="cls-5" d="M79.88,507.09S91,527.92,86.79,531.53,79.88,507.09,79.88,507.09Z" transform="translate(0 0.02)"/><path class="cls-5" d="M201.85,528.18c-3.9,3.89,37-12.86,27.66-13.64S201.85,528.18,201.85,528.18Z" transform="translate(0 0.02)"/><path class="cls-18" d="M283.67,235.93l1.31-.19c4.84-.74,22.41-3.5,38.17-6.92,3.84-.84,7.56-1.71,11-2.61,12.07-3.16,20.17-6.57,15-9.37-6.84-3.71-10.44-10.45-12.34-16.25-.18-.57-.35-1.12-.51-1.67a43,43,0,0,1-1.57-9s-44-15.59-35.46,0c4.21,7.65,1.38,13.89-2.59,18.26a34.28,34.28,0,0,1-9.49,7.07Z" transform="translate(0 0.02)"/><path class="cls-5" d="M330.82,223.85s-15.75,11.3-31.84,2-37.13,82.61-37.13,82.61L240,362.18s-14.13,11.69,3.46,16.76,56.61-5.07,66.52,9.74,28.67,17.14,30.59,17.14,9.34-55.73,9.34-55.73l1.93-80.66Z" transform="translate(0 0.02)"/><path class="cls-19" d="M244.23,375.82c17.59,5.06,56.62-5.07,66.53,9.74a38.16,38.16,0,0,0,16.79,13.53,44,44,0,0,0,13.83,3.66c.25,0,.62-1,1.05-2.79,2.74-11.28,8.29-52.94,8.29-52.94l1.92-80.66-18.51-40.15-2.53-5.48a33.54,33.54,0,0,1-8,3.91c-6.09,2.06-14.9,3.22-23.82-2-4.72-2.74-9.87,3.24-14.78,13.06-11.84,23.64-22.35,69.55-22.35,69.55l-21.84,53.84a19.85,19.85,0,0,0-1.48,1.42C236.23,363.75,230.42,371.84,244.23,375.82Z" transform="translate(0 0.02)"/><path class="cls-5" d="M328.07,378.53a102,102,0,0,0-.52,20.52,239.65,239.65,0,0,0,3.66,29,11,11,0,0,0,.48,1.77c9.51-4.17,17.06-7.22,17.06-7.22l-6.32-22.66c2.74-11.28,8.29-52.94,8.29-52.94l1.92-80.66-18.51-40.13c12.07-3.16,20.17-6.57,15-9.37-7.5-4.07-11.11-11.79-12.85-17.92a65.06,65.06,0,0,1-11,11.92l-.24.2-1.4,13.6-.43,4.18-.9,8.67s4.29,102.48,7.4,108.33,1.56,17.14-1.16,30.39C328.33,377,328.23,377.73,328.07,378.53Z" transform="translate(0 0.02)"/><path class="cls-20" d="M330,374.65c-2.72,13.25-.39,35.07,2.73,51.82s36.24,5.85,42.48,0,24.54-8.57,24.54-8.57.78-76.37,6.63-86.11c2.77-4.62,3.44-19.7,3.37-34.27-.05-13.08-.7-25.75-.94-30-.06-1-.09-1.55-.09-1.55s25.32-42.86,24.93-46-7.79-3.5-7.79-3.5-28-21.82-32.73-19.1-17.54-4.28-17.54-4.28-16.29,1.85-19.66-1.3a1.7,1.7,0,0,1-.6-1.43c.38-5-16.6-15.64-17.13-16,14.32,12.88-8.83,32.73-11.46,34.91l-.24.2-2.73,26.45s4.29,102.48,7.4,108.33S332.77,361.4,330,374.65Z" transform="translate(0 0.02)"/><circle class="cls-21" cx="331.55" cy="263.35" r="1.95"/><path class="cls-5" d="M327.56,210.84l11.84,11.45,17.35-29a1.7,1.7,0,0,1-.6-1.43c.38-5-16.61-15.64-17.13-16C353.34,188.81,330.23,208.66,327.56,210.84Z" transform="translate(0 0.02)"/><circle class="cls-5" cx="335.45" cy="325.69" r="1.95"/><circle class="cls-21" cx="335.45" cy="324.91" r="1.95"/><path class="cls-20" d="M326.78,209.28l11.84,11.45,17.35-29a1.7,1.7,0,0,1-.6-1.43c.38-5-16.6-15.64-17.13-16C352.56,187.25,329.41,207.09,326.78,209.28Z" transform="translate(0 0.02)"/><rect class="cls-22" x="300.06" y="276.46" width="57.3" height="27.12" rx="1.7" transform="translate(31.25 612.05) rotate(-88.69)"/><rect class="cls-23" x="300.2" y="277.73" width="57.3" height="27.12" rx="1.7" transform="translate(30.12 613.42) rotate(-88.69)"/><circle class="cls-24" cx="329.56" cy="279.45" r="4.26"/><path class="cls-5" d="M182.75,371.14c9.74,4.29,73.65-7,83-9.74s23-23.77,16.37-39,2.33-30,2.33-30,14-30,17.15-35.85,9.62-22.86,10.52-25.71a2.36,2.36,0,0,0-.55-1.79c-2.54-3.83-12.34-10.65-12.34-10.65-2.75,1-3.09-6.89-3-12.68.06-3.24.25-5.82.25-5.82s-1.29,1.31-3.4,3.1c-.77.65-1.65,1.37-2.63,2.11a40.29,40.29,0,0,1-12.22,6.71c-9.35,2.77-22.6,15.54-22.6,15.54l3.9,59.84s-9,56.28-18.32,67.19-37.41,10.52-46.76,10.52S182.75,371.14,182.75,371.14Z" transform="translate(0 0.02)"/><path class="cls-20" d="M182,368.81c9.74,4.28,73.65-7,83-9.75s23-23.77,16.37-39,2.33-30,2.33-30,14-30,17.15-35.85,9.62-22.86,10.52-25.71a2.36,2.36,0,0,0-.55-1.79c-2.56-3.82-12.31-10.62-12.31-10.62-2.75,1-3.09-6.88-3-12.67.06-3.25.25-5.83.25-5.83s-1.29,1.31-3.4,3.11c-.77.64-1.65,1.36-2.63,2.1a40.59,40.59,0,0,1-12.28,6.71c-9.35,2.77-22.6,15.54-22.6,15.54l3.9,59.84s-9,56.28-18.32,67.19S203,362.6,193.64,362.6,182,368.81,182,368.81Z" transform="translate(0 0.02)"/><path class="cls-5" d="M288,199.09s.37,2,1,5.21c2.1,10.7,7.1,34.06,10.71,33.16,2.59-.65,7-5.23,10.36-9.19-2.53-3.86-12.31-10.68-12.31-10.68-2.75,1-3.09-6.88-3-12.67l-3.15-2.72Z" transform="translate(0 0.02)"/><path class="cls-20" d="M288.74,197.56s.37,2.05,1,5.21c2.1,10.7,7.1,34.06,10.71,33.16,2.59-.65,7-5.23,10.36-9.19-2.58-3.85-12.33-10.65-12.33-10.65-2.75,1-3.09-6.88-3-12.67l-3.15-2.72Z" transform="translate(0 0.02)"/><path class="cls-25" d="M263.8,312.3s19.49-3.89,24.94-12.46,42.57-16,38-7-38,38.29-38,38.29L274.23,351.9,254.85,347l-8.17-15.89Z" transform="translate(0 0.02)"/><path class="cls-5" d="M309.9,334.54s-18.87,7-21.71,16.36S309.9,334.54,309.9,334.54Z" transform="translate(0 0.02)"/><path class="cls-5" d="M321.47,345.43s1.72,9.73-21.93,9Z" transform="translate(0 0.02)"/><path class="cls-5" d="M423.56,220.73l8.58-.78s9.35,7,16.36,7,11.3,9,11.3,9,11.69,5.46,15.59,6.24,10.52,4.67,8.57,6.23.39,5.07,3.9,7.79,9,16.76,4.28,18.71-17.53,5.84-21,7.79-7.79,0-7.79,0-20.64-26.89-31.17-21.82-24.95,5-24.95,5l-11.3-23.76Z" transform="translate(0 0.02)"/><path class="cls-20" d="M244.23,349c1.84,2.74,4.22,4.66,7.27,5.05a55,55,0,0,0,22.69-2.1s-39.25-12.47-1.46-42.79h-10.1l-3.4-1.28,1.54-8.07L263,227,254.81,225s-6.59,47.93-8.16,53.77-2.75,28.45-2.75,28.45-1.56,9.35-3.9,14C238.23,324.78,238.72,340.63,244.23,349Z" transform="translate(0 0.02)"/><path class="cls-5" d="M245.82,349c1.83,2.74,4.22,4.66,7.27,5.05a55,55,0,0,0,22.69-2.1s-39.25-12.47-1.46-42.81H264.23l-3.37-1.28C255.23,317.66,246.53,335.15,245.82,349Z" transform="translate(0 0.02)"/><path class="cls-26" d="M244.23,349c1.84,2.74,4.22,4.66,7.27,5.05a55,55,0,0,0,22.69-2.1s-39.25-12.47-1.46-42.79h-10.1l-3.4-1.28C253.71,317.66,245,335.15,244.23,349Z" transform="translate(0 0.02)"/><path class="cls-20" d="M244.23,349c1.84,2.74,4.22,4.66,7.27,5.05a55,55,0,0,0,22.69-2.1s-39.25-12.47-1.46-42.79h-10.1l-3.4-1.28C253.71,317.66,245,335.15,244.23,349Z" transform="translate(0 0.02)"/><path class="cls-5" d="M296.67,208.21a35.47,35.47,0,0,0,40.13-7.62c-.18-.57-.35-1.12-.51-1.67a43,43,0,0,1-1.57-9s-44-15.59-35.46,0C303.47,197.6,300.64,203.84,296.67,208.21Z" transform="translate(0 0.02)"/><path class="cls-27" d="M275.88,174.36v.35a32,32,0,0,0,.2,3.41c.12,1.12.28,2.14.48,3.19a35.47,35.47,0,0,0,68.32,4.58c.24-.69.45-1.38.64-2.08a34.73,34.73,0,0,0,1.28-9.45,21.84,21.84,0,0,0-.09-2.43,35.46,35.46,0,0,0-70.83,2.43Z" transform="translate(0 0.02)"/><path class="cls-5" d="M275.88,174.71a15.59,15.59,0,0,1,.2,3.41,12.67,12.67,0,0,0,.1,1.85,5.25,5.25,0,0,0,.38,1.34c1.43,3.36,6.11,5.54,9.2,3.37a9.83,9.83,0,0,0,2.76-3.62c3.28-6.09,7.83-13.09,15-13.21,3.06-.06,5.93,1.23,8.89,2s6.46.84,8.66-1.17c1.7-1.55,2.5-4.19,4.77-4.73s4.37,1.54,5.41,3.58,1.87,4.44,4,5.5c.94.46,2,.6,3,1.1,4.24,2.32,2.29,10.45,6.69,11.77a3.2,3.2,0,0,0,.42.1c.07-.72.15-1.46.22-2.18q.6-5.94,1.19-11.88a35.46,35.46,0,0,0-70.83,2.43Z" transform="translate(0 0.02)"/><path class="cls-28" d="M338.87,121.43c4.17,1.77,8.51,4.49,9.44,8.74.41,1.87.1,3.81.2,5.71.2,3.84,2,7.4,3.19,11.08s1.59,8-.75,11.1c-.73,1-1.7,1.79-2.36,2.81a11.49,11.49,0,0,0-1.36,5.22l-1.93,19.18c-4.94-.93-2.74-9.5-7.12-11.88-.91-.5-2-.64-2.95-1.11-2.11-1-2.93-3.45-4-5.49s-3.1-4.13-5.41-3.58-3.07,3.19-4.76,4.73c-2.21,2-5.72,1.92-8.67,1.17s-5.83-2-8.88-2c-7.18.12-11.74,7.12-15,13.21a10,10,0,0,1-2.77,3.63c-3.48,2.44-9-.64-9.57-4.72-.34-2.29.38-4.84-.94-6.78s-4.18-2.35-6.41-3.39c-5.7-2.62-7.46-9.73-6.52-15.69.69-4.3,2.4-8.72,1-12.86-.49-1.43-1.32-2.73-1.77-4.16-1.25-4,.79-8.44,4-11.29s7.42-4.42,11.56-5.8c10.63-3.57,21.79-7,33.1-7.74,4.95-.32,11.44-1.87,15.37,1.22C330.23,116.32,333.11,119,338.87,121.43Z" transform="translate(0 0.02)"/><circle class="cls-5" cx="329.6" cy="232.56" r="1.95"/><circle class="cls-21" cx="329.6" cy="231.78" r="1.95"/><circle class="cls-5" cx="342.07" cy="354.92" r="1.95"/><circle class="cls-21" cx="342.07" cy="354.14" r="1.95"/><circle class="cls-5" cx="335.45" cy="387.26" r="1.95"/><circle class="cls-21" cx="335.45" cy="386.48" r="1.95"/><path class="cls-5" d="M268.48,263.33s-4.29,29.1,0,34.17S268.48,263.33,268.48,263.33Z" transform="translate(0 0.02)"/><path class="cls-5" d="M395.9,317.37s8.18,17.63,0,34.53-13.25,23.77-10.52,34.56S395.9,317.37,395.9,317.37Z" transform="translate(0 0.02)"/><path class="cls-5" d="M9,640.79c12.08,8.18,30.4,4.28,30.4,4.28S67,631.83,75.21,631.83s28-8.19,28-8.19l-.67-5.51c-8.07,1.55-26.43,5.26-28.55,7.07-2.73,2.34-36.24,13.64-36.24,13.64S15,636,8.6,626.61C4.43,631,2.64,636.51,9,640.79Z" transform="translate(0 0.02)"/><g class="cls-6"><path d="M348.51,132.76V133A.6.6,0,0,0,348.51,132.76Z" transform="translate(0 0.02)"/><path d="M268.83,165.91c2.23,1,5,1.4,6.41,3.38s.6,4.49.94,6.78c.59,4.08,6.09,7.17,9.57,4.72a10,10,0,0,0,2.77-3.63c3.27-6.09,7.83-13.09,15-13.21,3.06,0,5.93,1.24,8.89,2s6.46.84,8.67-1.17c1.69-1.54,2.49-4.19,4.76-4.73s4.36,1.54,5.41,3.58,1.87,4.44,4,5.5c.94.46,2,.6,2.95,1.1,4.38,2.39,2.18,11,7.12,11.88q1-9.6,1.93-19.18a11.5,11.5,0,0,1,1.36-5.16c.66-1,1.63-1.84,2.36-2.82a8.57,8.57,0,0,0,1.6-4.12,10,10,0,0,1-1.6,7.24c-.73,1-1.7,1.79-2.36,2.81a11.44,11.44,0,0,0-1.38,5.21q-1,9.58-1.93,19.18c-4.94-.93-2.74-9.5-7.12-11.88-.91-.5-2-.64-2.95-1.11-2.11-1-2.93-3.45-4-5.49s-3.1-4.13-5.41-3.58-3.07,3.19-4.76,4.73c-2.21,2-5.72,1.92-8.67,1.17s-5.83-2-8.89-2c-7.17.12-11.73,7.12-15,13.21a10,10,0,0,1-2.77,3.63c-3.48,2.44-9-.64-9.57-4.72-.34-2.29.38-4.84-.94-6.78s-4.18-2.35-6.41-3.39c-5.21-2.4-7.13-8.55-6.69-14.14C262.52,159.49,264.58,164,268.83,165.91Z" transform="translate(0 0.02)"/><path d="M261.54,133.19c.45,1.43,1.28,2.74,1.77,4.16a11.89,11.89,0,0,1,.44,5.13,10.5,10.5,0,0,0-.44-2c-.49-1.43-1.32-2.73-1.77-4.16a8.89,8.89,0,0,1-.23-4.07A7.58,7.58,0,0,0,261.54,133.19Z" transform="translate(0 0.02)"/></g><path class="cls-29" d="M481.37,454.14l-80.32-10.05a3.07,3.07,0,0,1-1.83-5.18l33.69-35a3.06,3.06,0,0,1,2.56-.92l61.41,6.88a3.07,3.07,0,0,1,2.71,3.39,2.9,2.9,0,0,1-.19.77l-14.78,38.19A3.08,3.08,0,0,1,481.37,454.14Z" transform="translate(0 0.02)"/><path class="cls-5" d="M481.37,454.14l-80.32-10.05a3.07,3.07,0,0,1-1.83-5.18l33.69-35a3.06,3.06,0,0,1,2.56-.92l61.41,6.88a3.07,3.07,0,0,1,2.71,3.39,2.9,2.9,0,0,1-.19.77l-14.78,38.19A3.08,3.08,0,0,1,481.37,454.14Z" transform="translate(0 0.02)"/><path class="cls-29" d="M480.46,453.24l-80.31-10.09a3.09,3.09,0,0,1-2.67-3.45,3.13,3.13,0,0,1,.84-1.74L432,403a3.1,3.1,0,0,1,2.56-.93l61.4,6.88a3.08,3.08,0,0,1,2.72,3.4,2.9,2.9,0,0,1-.19.77l-14.79,38.19A3.08,3.08,0,0,1,480.46,453.24Z" transform="translate(0 0.02)"/><path class="cls-22" d="M432.6,416.67l24.12,1.94,34.4-2.24h-.59l-31.87-3.08c-7.3-2.68-2.24-18.46-2.24-18.46L432,396.07l-1.95.1C421.43,416.37,432.6,416.67,432.6,416.67Z" transform="translate(0 0.02)"/><path class="cls-5" d="M432.6,416.67l24.12,1.94,34.4-2.24h-.59l-34.78,1.24-23.3-2.53c-6.62-1.74-2.83-13.22-.44-19l-1.95.1C421.43,416.37,432.6,416.67,432.6,416.67Z" transform="translate(0 0.02)"/><path class="cls-30" d="M390.35,273.24l7.38,105.85,1,13.89a6,6,0,0,0,6.06,5.61H407l111.1-.67a3.13,3.13,0,0,0,3.09-3.17,2.35,2.35,0,0,0,0-.26l-1-13.9-7.82-93.08a6.39,6.39,0,0,0-4.27-5.4L402.23,266.23c-3.6-1.25-7.27-.81-9.56,1.1A6.75,6.75,0,0,0,390.35,273.24Z" transform="translate(0 0.02)"/><path class="cls-23" d="M397.73,379.09l1,13.89a6,6,0,0,0,6.06,5.61H407l111.1-.67a3.13,3.13,0,0,0,3.09-3.17,2.35,2.35,0,0,0,0-.26l-1-13.9Z" transform="translate(0 0.02)"/><ellipse class="cls-24" cx="472.21" cy="390.63" rx="1.49" ry="2.98"/><path class="cls-22" d="M467.89,430.22s-30.38-11.47-38.57-3.13c0,0-1.34,2.54,4.17,3.13L455.75,432S464.91,432.9,467.89,430.22Z" transform="translate(0 0.02)"/><path class="cls-23" d="M467.08,427.24c-6-2.44-23.93-8.75-35.43-1.77,0,0,12.72-1.41,19.71,2.63s16.53,2.12,16.53,2.12L468,430a1.93,1.93,0,0,0-.74-2.63Z" transform="translate(0 0.02)"/><path class="cls-23" d="M390.35,273.24,398.69,393a6,6,0,0,0,6.06,5.61H407a21.44,21.44,0,0,1-3.88-5s-8.19-120.34-8.79-123.32a6,6,0,0,0-1.65-2.94A6.7,6.7,0,0,0,390.35,273.24Z" transform="translate(0 0.02)"/><path class="cls-5" d="M390.35,273.24,398.69,393a6,6,0,0,0,6.06,5.61H407a21.44,21.44,0,0,1-3.88-5s-8.19-120.34-8.79-123.32a6,6,0,0,0-1.65-2.94A6.7,6.7,0,0,0,390.35,273.24Z" transform="translate(0 0.02)"/><path class="cls-5" d="M376,306.44c9-2,30-8.16,30-8.16l3.76-.76c0-13.08-.7-25.75-.94-30h-.09s-17.93,5.85-22.21,9S369,278.85,369,278.85s-20.64,1.11-37.77,20.24S367.06,308.41,376,306.44Z" transform="translate(0 0.02)"/><path class="cls-25" d="M463.61,271.67a5.22,5.22,0,0,1,1.17,8.74c-4.75,3.93-11.68,8.63-18.3,9.29-11,1.11-37.6,6.44-40.24,7a3.2,3.2,0,0,0-.42.1c-2.19.64-21.35,6.25-29.8,8.1-9,2-62,11.71-44.81-7.38,15.78-17.58,34.53-20,37.42-20.23a4,4,0,0,1,.69,0c2,.09,13.32.48,17.23-2.35a36.84,36.84,0,0,1,6.44-3.21,122.63,122.63,0,0,1,26.35-7.6l18.33-3.2a5.26,5.26,0,0,1,3.08.4Z" transform="translate(0 0.02)"/><path class="cls-20" d="M425.12,220.73l8.57-.78s9.36,7,16.37,7,11.3,9,11.3,9,11.69,5.46,15.59,6.24,10.52,4.67,8.57,6.23.39,5.07,3.9,7.79,9,16.76,4.28,18.71-17.53,5.84-21,7.79-7.79,0-7.79,0-20.68-26.91-31.21-21.84-24.94,5.06-24.94,5.06l-11.3-23.76Z" transform="translate(0 0.02)"/></svg>