<?xml version="1.0" encoding="utf-8"?>
<!-- Generator: Adobe Illustrator 25.0.1, SVG Export Plug-In . SVG Version: 6.00 Build 0)  -->
<svg version="1.1" id="Layer_1" xmlns="http://www.w3.org/2000/svg" xmlns:xlink="http://www.w3.org/1999/xlink" x="0px" y="0px"
	 viewBox="0 0 640 140" style="enable-background:new 0 0 640 140;" xml:space="preserve">
<style type="text/css">
	.st0{fill:#BF2026;}
	.st1{fill:#F4F4F5;}
	.st2{enable-background:new    ;}
	.st3{fill:#F2F2F3;}
</style>
<polygon class="st0" points="534.9,97.1 557.2,68.9 562.7,75.8 540.3,104 "/>
<polygon class="st0" points="540.3,47.5 562.7,75.7 557.3,82.6 534.9,54.4 "/>
<polygon class="st0" points="86.3,58 64,86.2 58.5,79.3 80.9,51.1 "/>
<polygon class="st0" points="80.9,107.6 58.5,79.4 64,72.5 86.3,100.7 "/>
<rect x="490" y="73.7" transform="matrix(0.3634 -0.9316 0.9316 0.3634 259.8517 533.0612)" class="st1" width="60" height="5.4"/>
<g class="st2">
	<path class="st3" d="M133.6,97.2h-7.4v-35l-11.1,35h-3.8l-11.1-35v35h-5.9v-40h11.3L114,83l8.2-25.8h11.3V97.2z"/>
	<path class="st3" d="M173.8,97.2h-7.7l-3.2-9.5h-15.4l-3.1,9.5h-6.2l13.3-40h8.9L173.8,97.2z M161,81.9l-5.8-17.8l-5.8,17.8H161z"
		/>
	<path class="st3" d="M189.3,97.2h-7.7V63.4H171v-6.2h29v6.2h-10.6V97.2z"/>
	<path class="st3" d="M218.3,97.2h-7.7V63.4H200v-6.2h29v6.2h-10.6V97.2z"/>
	<path class="st3" d="M263,97.2h-7.2V79.8h-15.3v17.4h-7.2v-40h7.2v16.4h15.3V57.2h7.2V97.2z"/>
	<path class="st3" d="M297.8,97.2h-26v-40h25.7v5.9H279V74h14.9v5.8H279V91h18.8V97.2z"/>
	<path class="st3" d="M352.1,57.2l-10.7,40h-7.6l-8-29.4l-7.2,29.4h-7.4l-10.9-40h7.6l7.7,29.2l7.2-29.2h7.3l8,29.2l7.6-29.2H352.1z
		"/>
</g>
<g class="st2">
	<path class="st0" d="M384.9,97.2h-24.6v-40h7.6v33.5h17V97.2z"/>
	<path class="st0" d="M403.9,97.8c-5.3,0-9.4-2-12.4-6s-4.4-8.9-4.4-14.8c0-5.8,1.6-10.7,4.7-14.6c3.1-3.9,7.3-5.9,12.5-5.9
		c5.2,0,9.3,2,12.3,5.9s4.5,8.8,4.5,14.7c0,6.2-1.6,11.2-4.7,15S409,97.8,403.9,97.8z M403.9,92c2.6,0,4.8-1.1,6.6-3.2
		c1.8-2.1,2.7-6,2.7-11.7c0-4.6-0.7-8.2-2.2-10.8c-1.5-2.6-3.8-3.9-6.9-3.9c-6.2,0-9.3,5-9.3,14.9c0,4.8,0.8,8.5,2.4,11
		C398.7,90.8,401,92,403.9,92z"/>
	<path class="st0" d="M474.8,57.2l-10.7,40h-7.6l-8-29.4l-7.2,29.4H434l-10.9-40h7.6l7.7,29.2l7.2-29.2h7.3l8,29.2l7.6-29.2H474.8z"
		/>
	<path class="st0" d="M505.8,97.2h-26v-40h25.7v5.9H487V74h14.9v5.8H487V91h18.8V97.2z"/>
</g>
</svg>
