<?xml version="1.0" standalone="no"?>
<!DOCTYPE svg PUBLIC "-//W3C//DTD SVG 20010904//EN"
 "http://www.w3.org/TR/2001/REC-SVG-20010904/DTD/svg10.dtd">
<svg version="1.0" xmlns="http://www.w3.org/2000/svg"
 width="1212.000000pt" height="1212.000000pt" viewBox="0 0 1212.000000 1212.000000"
 preserveAspectRatio="xMidYMid meet">
<metadata>
Created by potrace 1.11, written by Peter Selinger 2001-2013
</metadata>
<g transform="translate(0.000000,1212.000000) scale(0.100000,-0.100000)"
fill="#000000" stroke="none">
<path d="M9672 10953 c-10 -21 -29 -58 -42 -83 -13 -25 -25 -47 -25 -50 -5
-27 -19 -50 -33 -54 -29 -8 -86 -19 -107 -21 -69 -6 -136 -19 -141 -27 -12
-19 21 -65 91 -128 52 -46 73 -72 74 -90 0 -14 -8 -74 -18 -133 l-18 -109 21
-7 c18 -7 93 24 160 67 6 4 13 7 16 8 3 0 18 7 33 14 27 13 34 11 123 -34 52
-27 96 -52 99 -56 2 -4 16 -5 30 -2 20 3 25 10 25 36 0 17 -5 49 -10 71 -5 22
-12 60 -15 85 -4 24 -8 48 -11 51 -6 10 30 52 112 131 72 70 74 73 56 90 -10
10 -36 20 -57 22 -22 2 -56 7 -75 10 -19 3 -47 8 -63 10 -55 9 -63 17 -115
126 -61 125 -80 138 -110 73z"/>
<path d="M4838 10485 c-2 -2 -59 -5 -128 -9 -69 -3 -134 -8 -145 -10 -11 -2
-42 -7 -70 -10 -27 -4 -72 -11 -100 -16 -27 -5 -63 -12 -80 -15 -16 -2 -45 -9
-63 -14 -18 -5 -35 -10 -37 -10 -3 -1 -6 -1 -7 -2 -2 0 -10 -2 -19 -4 -9 -1
-43 -11 -75 -20 -33 -10 -66 -19 -74 -20 -8 -2 -16 -4 -17 -5 -2 -2 -7 -4 -13
-5 -5 -1 -12 -4 -15 -5 -3 -1 -8 -3 -12 -5 -14 -3 -47 -16 -73 -28 -14 -6 -27
-11 -30 -12 -14 -5 -49 -19 -87 -36 -23 -10 -48 -20 -55 -21 -7 -2 -15 -5 -18
-8 -3 -3 -58 -32 -123 -64 -112 -57 -119 -59 -152 -47 -42 15 -160 16 -198 2
-16 -6 -32 -9 -37 -6 -5 3 -10 1 -12 -4 -1 -5 -10 -11 -18 -13 -18 -4 -32 -14
-82 -60 -22 -21 -36 -38 -32 -38 5 0 4 -4 -2 -8 -28 -18 -57 -99 -60 -166 l-3
-70 -108 -111 c-59 -61 -128 -135 -153 -165 -57 -67 -150 -192 -150 -199 0 -4
-11 -19 -25 -34 -14 -15 -23 -27 -19 -27 4 0 0 -8 -8 -17 -54 -64 -201 -350
-262 -510 -34 -91 -86 -255 -104 -333 -35 -147 -45 -201 -46 -247 -1 -18 -3
-33 -7 -33 -3 0 -6 -17 -8 -37 -1 -21 -5 -54 -7 -73 -10 -65 -12 -445 -3 -525
14 -129 17 -147 28 -215 20 -121 22 -126 85 -365 2 -5 6 -23 11 -40 4 -16 11
-34 16 -40 4 -5 8 -14 9 -20 6 -28 48 -140 64 -170 5 -11 11 -26 12 -34 2 -8
6 -17 11 -20 4 -3 9 -13 11 -21 12 -59 219 -406 310 -520 39 -48 126 -152 155
-184 9 -11 17 -23 17 -28 0 -7 -35 -42 -73 -73 -6 -6 -66 -58 -132 -115 -122
-106 -144 -125 -181 -157 -28 -24 -141 -123 -169 -148 -13 -11 -44 -38 -70
-60 -26 -22 -63 -55 -82 -72 -19 -18 -46 -42 -61 -54 -15 -11 -43 -35 -62 -52
-19 -18 -64 -57 -100 -87 -36 -30 -74 -64 -86 -75 -18 -18 -101 -90 -158 -138
-47 -40 -122 -105 -173 -151 -29 -27 -62 -55 -72 -62 -9 -7 -32 -26 -50 -43
-19 -17 -56 -50 -83 -74 -28 -23 -63 -53 -78 -67 -15 -14 -36 -32 -46 -40 -11
-9 -42 -36 -70 -60 -28 -25 -79 -70 -114 -100 -34 -30 -68 -59 -74 -65 -6 -5
-43 -37 -81 -70 -87 -75 -121 -105 -149 -130 -12 -11 -49 -42 -82 -70 -235
-199 -308 -328 -300 -535 4 -95 7 -109 32 -166 9 -21 16 -42 16 -46 -1 -5 2
-8 8 -8 5 0 10 -5 10 -10 0 -15 39 -68 80 -107 19 -19 78 -55 130 -80 52 -26
98 -51 102 -57 4 -6 8 -8 8 -4 0 3 73 -30 163 -75 89 -44 164 -81 167 -82 5
-1 171 -81 474 -231 105 -52 194 -94 199 -94 5 0 21 -9 37 -20 15 -11 29 -17
32 -14 3 2 11 -2 18 -11 7 -8 16 -15 21 -15 5 0 109 -49 231 -109 123 -60 344
-168 491 -240 148 -72 272 -131 278 -131 5 0 9 -4 9 -10 0 -5 6 -10 13 -10 7
0 66 -27 132 -59 345 -171 781 -383 790 -384 6 -1 13 -6 17 -12 4 -5 11 -10
15 -10 4 -1 60 -26 123 -57 212 -103 315 -128 500 -122 69 2 134 5 145 7 67
11 247 75 253 89 2 5 8 6 13 2 5 -3 9 -1 9 4 0 9 37 25 53 23 4 -1 7 3 7 8 0
5 15 18 33 29 27 16 172 134 283 230 17 15 50 43 74 62 24 19 48 40 54 45 6 6
38 33 71 60 62 52 110 93 129 110 10 9 145 122 215 180 14 11 43 36 65 55 22
19 45 38 51 43 17 13 141 117 169 142 6 6 36 30 66 55 30 25 60 49 66 55 6 5
35 30 64 55 30 25 62 53 72 62 10 10 21 18 24 18 4 0 14 8 23 18 9 9 41 38 71
62 30 25 60 49 66 55 6 5 33 28 60 50 88 73 139 116 164 139 14 12 50 42 80
67 30 24 60 49 66 54 6 6 33 28 58 50 26 21 58 48 71 60 12 11 42 36 65 55 24
19 52 43 64 53 11 11 38 33 60 50 21 18 49 41 62 52 13 11 40 34 59 50 20 17
52 45 71 63 20 17 39 32 43 32 3 0 14 8 23 18 9 9 25 24 34 32 10 8 37 30 60
50 22 19 59 49 80 66 22 18 51 42 65 55 14 13 47 42 75 64 27 22 60 50 74 61
50 43 117 100 159 134 24 19 50 42 60 51 9 8 43 37 76 65 33 27 65 54 71 59 6
6 33 28 59 50 27 22 54 45 61 52 6 7 14 9 18 6 3 -4 6 1 6 10 0 9 4 17 8 17 5
0 18 8 30 17 11 10 39 34 62 53 23 19 51 43 63 53 78 66 117 99 157 132 25 21
48 42 52 49 4 6 8 8 8 4 0 -4 13 5 29 20 40 38 130 114 155 132 12 8 31 24 42
35 40 40 84 75 93 75 5 0 11 4 13 9 2 4 37 37 79 72 145 123 174 147 199 169
14 12 41 34 60 49 18 14 46 37 61 51 14 14 44 39 65 57 21 17 49 40 62 51 13
11 41 35 62 52 21 17 49 41 62 52 13 11 43 36 68 56 24 21 54 47 67 59 12 12
31 27 41 35 11 7 41 32 68 55 27 23 83 70 124 104 41 34 77 66 78 70 2 5 10 9
18 9 8 0 14 4 14 8 0 5 30 33 67 63 37 30 82 68 100 86 18 17 41 34 53 38 11
3 18 11 15 16 -4 5 -2 9 3 9 4 0 17 8 28 18 10 9 57 48 104 87 47 38 92 76
101 85 9 8 35 31 59 50 23 19 48 40 54 45 6 6 54 46 106 89 52 44 108 92 124
108 17 15 33 28 36 28 4 0 20 12 36 28 16 15 51 45 78 67 74 61 117 98 145
123 14 13 40 35 59 50 19 15 40 32 46 37 9 8 165 139 213 180 7 5 20 17 30 25
9 8 35 30 58 48 95 79 118 98 138 117 13 11 49 42 82 70 33 27 61 53 63 57 2
5 8 8 12 8 19 0 110 107 110 129 0 6 4 11 8 11 17 0 46 119 50 209 8 161 -24
264 -114 374 -29 35 -198 146 -232 153 -8 1 -21 9 -30 17 -17 14 -39 24 -56
25 -5 0 -12 4 -15 9 -7 12 -165 98 -170 94 -2 -1 -7 2 -11 9 -4 6 -14 12 -22
14 -9 1 -22 7 -29 13 -8 5 -59 34 -114 63 -55 30 -120 65 -145 80 -25 14 -60
32 -77 39 -18 7 -33 17 -33 21 0 7 -11 11 -48 20 -4 1 -13 7 -20 13 -14 11
-111 65 -172 95 -19 9 -37 20 -40 23 -3 4 -41 25 -85 47 -44 23 -111 59 -150
80 -38 21 -110 60 -160 87 -49 27 -111 61 -136 76 -25 14 -56 30 -67 34 -12 3
-22 11 -22 16 0 6 -4 7 -10 4 -5 -3 -10 -1 -10 5 0 6 -4 8 -10 5 -5 -3 -10 -1
-10 6 0 7 -3 9 -7 6 -3 -4 -11 -3 -17 2 -13 11 -47 30 -181 101 -55 30 -102
56 -105 59 -3 3 -27 17 -55 30 -27 14 -62 33 -77 44 -16 10 -28 15 -28 10 0
-4 -4 -3 -8 2 -4 6 -27 21 -52 33 -95 50 -145 77 -150 82 -3 3 -29 16 -57 30
-29 14 -53 28 -53 33 0 4 -9 7 -20 7 -11 0 -20 4 -20 9 0 8 -62 35 -67 29 -1
-2 -9 6 -17 17 -9 11 -16 16 -16 10 0 -7 -3 -6 -8 0 -4 6 -39 27 -79 47 -39
21 -89 47 -110 59 -21 12 -76 42 -123 67 -47 25 -97 54 -112 64 -16 11 -28 16
-28 12 0 -3 -6 -1 -14 5 -18 15 -156 90 -178 98 -10 3 -18 10 -18 15 0 5 -4 7
-9 3 -5 -3 -12 -1 -16 5 -3 6 -23 17 -43 26 -20 8 -39 18 -42 22 -13 18 -222
114 -280 129 -85 22 -253 21 -287 0 -7 -5 -13 -6 -13 -2 0 3 -15 -1 -32 -8
-18 -8 -39 -12 -45 -10 -7 3 -16 -2 -19 -11 -3 -9 -10 -14 -14 -11 -4 2 -34
-13 -67 -34 -58 -38 -85 -58 -143 -111 -24 -21 -72 -63 -164 -143 -85 -74
-136 -118 -180 -156 -66 -57 -83 -72 -103 -93 -16 -16 -18 -16 -35 5 -64 74
-217 237 -223 237 -2 0 -26 21 -54 48 -54 51 -94 85 -156 132 -22 16 -45 34
-51 39 -115 95 -436 278 -599 341 -33 12 -73 29 -90 36 -27 11 -129 46 -147
50 -5 1 -9 2 -10 4 -2 1 -10 3 -18 5 -8 2 -42 11 -75 20 -70 19 -62 17 -190
44 -55 11 -122 23 -150 26 -27 4 -60 8 -72 10 -44 7 -360 24 -365 20z"/>
<path d="M268 9418 c-8 -13 -27 -49 -43 -81 -31 -62 -39 -71 -70 -73 -11 -1
-42 -5 -70 -9 -27 -4 -55 -8 -62 -8 -7 0 -15 -7 -18 -16 -4 -9 17 -38 59 -80
73 -74 72 -69 43 -216 -3 -11 0 -28 5 -37 8 -16 17 -14 94 26 l85 44 62 -31
c34 -18 64 -35 67 -38 3 -3 15 -8 27 -11 24 -6 38 16 29 43 -3 8 -7 32 -10 54
-2 22 -7 52 -11 68 -6 24 0 35 59 93 39 39 66 73 64 83 -2 11 -18 18 -50 22
-26 4 -52 11 -59 15 -7 4 -9 3 -6 -3 4 -6 -9 -6 -35 1 -31 8 -44 18 -52 39 -6
15 -14 27 -18 27 -4 0 -8 6 -8 14 0 17 -31 78 -45 88 -16 12 -22 10 -37 -14z"/>
<path d="M7110 2388 c-11 -18 -20 -39 -20 -45 0 -7 -4 -13 -10 -13 -5 0 -10
-6 -10 -14 0 -18 -8 -23 -43 -30 -15 -2 -32 -8 -38 -12 -8 -4 -9 -3 -5 4 5 9
0 9 -18 2 -14 -5 -26 -6 -26 -2 0 4 -5 -1 -11 -12 -10 -15 -4 -26 40 -68 28
-28 49 -54 46 -57 -2 -4 -7 -30 -11 -57 -3 -27 -8 -52 -10 -55 -2 -4 2 -11 9
-17 9 -8 29 -1 72 22 l60 32 60 -32 c34 -18 66 -30 72 -26 9 5 8 24 -1 75
l-13 67 49 47 c26 27 48 53 48 60 0 14 -36 27 -50 18 -5 -3 -10 -2 -10 2 0 5
-12 9 -27 10 -16 0 -34 1 -40 2 -7 0 -26 28 -43 60 -16 33 -34 62 -40 66 -5 3
-19 -9 -30 -27z"/>
</g>
</svg>
